<?xml version="1.0" standalone="no"?>
<svg xmlns="http://www.w3.org/2000/svg" viewBox="0 0 256.32 117.96" width="256.32" height="117.96"><rect fill="#0b0cac" width="256.32" height="117.96" x="0" y="0"></rect><g fill="white" color="white" transform="translate(103.16 12) scale(0.5)"><svg width="100.0" height="100.0" x="0.0" y="0.0" viewBox="0 0 100 100"><polygon points="30.917,82.868 83.112,65.066 41.654,31.079 "></polygon><polygon points="80.891,14.657 82.146,14.141 34.306,4.075 41.663,29.509 "></polygon><polygon points="83.625,14.614 82.001,15.282 82.009,15.303 42.318,30.33 83.625,64.193 "></polygon><polygon points="33.408,4.573 4.484,43.216 40.723,29.86 "></polygon><polygon points="71.796,87.147 93.758,57.799 84.512,65.579 "></polygon><polygon points="23.979,83.508 50.157,91.115 30.145,84.117 "></polygon><polygon points="84.625,17.348 84.625,64.176 95.662,54.889 "></polygon><polygon points="31.782,83.631 65.583,95.45 66.325,94.458 83.009,66.159 "></polygon><polygon points="5.269,48.243 19.277,82.037 29.227,83.021 "></polygon><polygon points="40.66,30.949 3.902,44.497 29.998,82.378 "></polygon></svg></g><path fill="white" fill-rule="nonzero" d="M16.16 17.68L16.16 17.68L21.32 17.68Q21.32 23.12 18.60 26.04Q15.88 28.96 10.92 28.96L10.92 28.96Q0 28.96 0 16.12L0 16.12L0 13.72Q0 3.60 5.60 1.04L5.60 1.04Q7.80 0 10.92 0L10.92 0Q15.48 0 18.34 2.50Q21.20 5 21.20 9.72L21.20 9.72L16.00 9.72Q15.56 7.36 14.44 6.16Q13.32 4.96 10.92 4.96L10.92 4.96Q8.12 4.96 6.76 6.72L6.76 6.72Q5.80 7.96 5.64 10.96L5.64 10.96Q5.56 11.92 5.56 13.56L5.56 13.56L5.56 16.04Q5.56 20.64 6.84 22.32L6.84 22.32Q8.16 24 10.94 24Q13.72 24 14.78 22.46Q15.84 20.92 16.16 17.68ZM39.44 0.24L45.48 0.24L36.92 17.04L36.92 28.72L31.40 28.72L31.40 17.04L22.84 0.24L28.88 0.24L34.20 11.72L39.44 0.24ZM69.56 20.52L69.56 20.52Q69.56 24.48 67.42 26.60Q65.28 28.72 61.44 28.72L61.44 28.72L57.60 28.72Q52.88 28.72 50.90 27.08Q48.92 25.44 48.92 21.40L48.92 21.40L48.92 0.24L60.96 0.24Q65.04 0.24 67.10 2.28Q69.16 4.32 69.16 8.04L69.16 8.04Q69.16 10.20 68.06 11.72Q66.96 13.24 65.64 13.88L65.64 13.88Q69.56 15.72 69.56 20.52ZM54.48 11.36L60.52 11.36Q63.60 11.36 63.60 8.28Q63.60 5.20 60.52 5.20L60.52 5.20L54.48 5.20L54.48 11.36ZM64 20.24L64 20.24Q64 18.32 63.32 17.34Q62.64 16.36 60.88 16.36L60.88 16.36L54.48 16.36L54.48 20.84Q54.48 22.48 55.30 23.12Q56.12 23.76 58 23.76L58 23.76L60.88 23.76Q64 23.76 64 20.24ZM94 23.76L94 28.72L83.92 28.72Q79.12 28.72 77.18 27.06Q75.24 25.40 75.24 21.20L75.24 21.20L75.24 0.24L94 0.24L94 5.20L80.80 5.20L80.80 11.88L90.04 11.88L89.64 16.84L80.80 16.84L80.80 20.80Q80.80 22.48 81.56 23.12Q82.32 23.76 84.32 23.76L84.32 23.76L94 23.76ZM114.64 17.24L121 28.72L114.56 28.72L109 18.16L105 18.16L105 28.72L99.44 28.72L99.44 6.36Q99.44 3.16 100.92 1.70Q102.40 0.24 105.88 0.24L105.88 0.24L110.60 0.24Q114.84 0.24 117.34 2.82Q119.84 5.40 119.84 9.36L119.84 9.36Q119.84 12.24 118.34 14.34Q116.84 16.44 114.64 17.24L114.64 17.24ZM110.24 13.52Q112 13.52 113.14 12.30Q114.28 11.08 114.28 9.26Q114.28 7.44 113.18 6.32Q112.08 5.20 110.24 5.20L110.24 5.20L107.48 5.20Q105 5.20 105 7.72L105 7.72L105 13.52L110.24 13.52ZM147.08 14.36L147.08 14.36L147.12 17.44Q146.96 20.36 146.40 22.36Q145.84 24.36 144.20 26L144.20 26Q141.48 28.72 136.28 28.72L136.28 28.72Q130.16 28.72 127.88 27.10Q125.60 25.48 125.60 21.24L125.60 21.24L125.60 0.24L136.68 0.24Q141.48 0.24 144.20 2.96L144.20 2.96Q146.40 5.16 146.80 8.32L146.80 8.32Q147.08 10.56 147.08 14.36ZM140.32 22Q141.08 21.08 141.30 19.46Q141.52 17.84 141.52 14.40Q141.52 10.96 141.30 9.42Q141.08 7.88 140.32 6.96L140.32 6.96Q138.88 5.20 136.16 5.20L136.16 5.20L131.16 5.20L131.16 20.96Q131.16 22.56 132.24 23.16Q133.32 23.76 136.10 23.76Q138.88 23.76 140.32 22L140.32 22ZM167.16 17.24L173.52 28.72L167.08 28.72L161.52 18.16L157.52 18.16L157.52 28.72L151.96 28.72L151.96 6.36Q151.96 3.16 153.44 1.70Q154.92 0.24 158.40 0.24L158.40 0.24L163.12 0.24Q167.36 0.24 169.86 2.82Q172.36 5.40 172.36 9.36L172.36 9.36Q172.36 12.24 170.86 14.34Q169.36 16.44 167.16 17.24L167.16 17.24ZM162.76 13.52Q164.52 13.52 165.66 12.30Q166.80 11.08 166.80 9.26Q166.80 7.44 165.70 6.32Q164.60 5.20 162.76 5.20L162.76 5.20L160 5.20Q157.52 5.20 157.52 7.72L157.52 7.72L157.52 13.52L162.76 13.52ZM183.68 0.24L183.68 28.72L178.12 28.72L178.12 0.24L183.68 0.24ZM204.32 0.24L210.12 0.24L201.16 27.12Q200.44 28.96 198.60 28.96L198.60 28.96Q196.68 28.96 195.96 27.12L195.96 27.12L187.12 0.24L192.88 0.24L198.60 18.80L204.32 0.24ZM232.32 23.76L232.32 28.72L222.24 28.72Q217.44 28.72 215.50 27.06Q213.56 25.40 213.56 21.20L213.56 21.20L213.56 0.24L232.32 0.24L232.32 5.20L219.12 5.20L219.12 11.88L228.36 11.88L227.96 16.84L219.12 16.84L219.12 20.80Q219.12 22.48 219.88 23.12Q220.64 23.76 222.64 23.76L222.64 23.76L232.32 23.76Z" transform="translate(12 77) scale(1)"></path></svg>